<?xml version="1.0" encoding="UTF-8" standalone="no"?>
<!-- Created with Inkscape (http://www.inkscape.org/) -->

<svg
   width="262.17004mm"
   height="243.25882mm"
   viewBox="0 0 262.17004 243.25882"
   version="1.1"
   id="svg1"
   inkscape:version="1.4.1 (1:1.4.1+202503302257+93de688d07)"
   sodipodi:docname="test.svg"
   xml:space="preserve"
   xmlns:inkscape="http://www.inkscape.org/namespaces/inkscape"
   xmlns:sodipodi="http://sodipodi.sourceforge.net/DTD/sodipodi-0.dtd"
   xmlns="http://www.w3.org/2000/svg"
   xmlns:svg="http://www.w3.org/2000/svg"><sodipodi:namedview
     id="namedview1"
     pagecolor="#ffffff"
     bordercolor="#999999"
     borderopacity="1"
     inkscape:showpageshadow="2"
     inkscape:pageopacity="0"
     inkscape:pagecheckerboard="0"
     inkscape:deskcolor="#d1d1d1"
     inkscape:document-units="mm"
     inkscape:zoom="0.37304688"
     inkscape:cx="-31131.476"
     inkscape:cy="9906.2618"
     inkscape:window-width="1858"
     inkscape:window-height="1016"
     inkscape:window-x="0"
     inkscape:window-y="0"
     inkscape:window-maximized="1"
     inkscape:current-layer="layer1"
     showguides="true"><sodipodi:guide
       position="8222.234,-116.02123"
       orientation="0,-1"
       id="guide102"
       inkscape:locked="false" /><inkscape:page
       x="0"
       y="-8.1855795e-13"
       width="262.17004"
       height="243.2588"
       id="page2"
       margin="0"
       bleed="0" /></sodipodi:namedview><defs
     id="defs1"><inkscape:path-effect
       effect="bspline"
       id="path-effect219"
       is_visible="true"
       lpeversion="1.3"
       weight="33.333333"
       steps="2"
       helper_size="0"
       apply_no_weight="true"
       apply_with_weight="true"
       only_selected="false"
       uniform="false" /></defs><g
     inkscape:label="Layer 1"
     inkscape:groupmode="layer"
     id="layer1"
     transform="translate(9786.2794,-691.51108)"><path
       style="fill:#fe572a;fill-opacity:1;stroke:none;stroke-width:2;stroke-linecap:square;stroke-dasharray:none;stroke-opacity:1;paint-order:fill markers stroke"
       d="m -7350.2855,-568.91151 c 0.5993,-0.88984 1.7979,-2.66949 3.0043,-3.18496 1.2064,-0.51547 2.4201,0.23316 2.8402,1.12092 0.4201,0.88776 0.046,1.91397 -0.588,2.78185 -0.6344,0.86787 -1.5289,1.57693 -2.4236,2.28607 1.3856,-1.09831 2.7712,-2.19658 3.614,-3.11407 0.8428,-0.91749 1.1427,-1.65401 1.553,-2.27241 0.4104,-0.6184 0.931,-1.11833 1.6056,-1.38926 0.6747,-0.27094 1.5034,-0.31289 2.0438,0.16629 0.5405,0.47918 0.7926,1.47933 0.4994,2.67197 -0.2933,1.19264 -1.132,2.57752 -2.1762,3.58546 -1.0443,1.00794 -2.294,1.63875 -3.5437,2.26959 1.6707,-1.03513 3.3414,-2.07023 4.47,-3.12479 1.1285,-1.05456 1.7148,-2.12845 2.266,-3.25533 0.5511,-1.12688 1.067,-2.30644 1.878,-2.86947 0.8111,-0.56302 1.9168,-0.50915 2.7221,0.19919 0.8053,0.70833 1.3098,2.07088 0.9255,3.65991 -0.3843,1.58904 -1.6573,3.40415 -3.4408,5.01978 -1.7835,1.61563 -4.0771,3.03146 -6.1864,3.97716 -2.1093,0.9457 -4.0334,1.4209 -5.613,1.55866 -1.5796,0.13777 -2.8147,-0.062 -3.8044,-0.98819 -0.9897,-0.92616 -1.7343,-2.57872 -1.7343,-4.06795 0,-1.48922 0.7446,-2.81491 1.1169,-3.47773 0.3723,-0.66282 0.3723,-0.66285 0.9716,-1.55269 z"
       id="path164"
       inkscape:path-effect="#path-effect219"
       inkscape:original-d="m -7350.8848,-568.02167 c 1.1986,-1.77969 2.3972,-3.55934 3.5959,-5.33913 1.2141,0.74885 2.4278,1.49751 3.642,2.24641 -0.374,1.02659 -0.7478,2.0528 -1.1217,3.07933 -0.8948,0.70921 -2.684,2.12743 -2.684,2.12743 0,0 2.7712,-2.19661 4.1569,-3.29493 0.2999,-0.73663 0.5998,-1.47314 0.8997,-2.20986 0.5208,-0.50006 1.0414,-1 1.562,-1.49995 0.8287,-0.0419 1.6574,-0.0839 2.4861,-0.12583 0.2522,1.00029 0.5043,2.00045 0.7565,3.00076 -0.8387,1.38498 -1.6774,2.76983 -2.5161,4.15485 -1.2498,0.63088 -3.7492,1.89253 -3.7492,1.89253 0,0 3.3414,-2.07024 5.0122,-3.1054 0.5863,-1.07397 1.1726,-2.14786 1.759,-3.22183 0.5159,-1.17979 1.0318,-2.35933 1.5478,-3.53927 1.1061,0.0539 2.2118,0.10776 3.3178,0.16165 0.5046,1.36278 1.0091,2.72533 1.5137,4.08808 -1.2732,1.81531 -2.5462,3.63045 -3.8194,5.44572 -2.2938,1.41598 -4.5874,2.8318 -6.8814,4.24788 -1.9246,0.47531 -3.8487,0.95051 -5.7731,1.42579 -1.2348,-0.19976 -2.4699,-0.39952 -3.7047,-0.59928 -0.7445,-1.65264 -1.4891,-3.3052 -2.2339,-4.95779 0.7448,-1.32574 1.4894,-2.65144 2.2339,-3.97713 z"
       sodipodi:nodetypes="scccccccccccccccccccccss"
       transform="matrix(13.918537,-3.6760625,7.02246,12.729976,96517.026,-18965.491)" /></g></svg>
